<svg width="287" height="37" viewBox="0 0 287 37" fill="none" xmlns="http://www.w3.org/2000/svg">
<path d="M19.916 6.94C20.54 8.212 20.852 9.628 20.852 11.188C20.852 12.748 20.54 14.164 19.916 15.436C19.292 16.684 18.488 17.68 17.504 18.424C15.512 19.96 13.448 20.728 11.312 20.728H6.812V24.796C6.812 25.348 6.788 25.768 6.74 26.056C6.716 26.32 6.608 26.632 6.416 26.992C6.08 27.64 5.144 27.964 3.608 27.964C1.928 27.964 0.944 27.52 0.656 26.632C0.512 26.224 0.44 25.6 0.44 24.76V4.78C0.44 4.228 0.452 3.82 0.476 3.556C0.524 3.268 0.644 2.944 0.836 2.584C1.172 1.936 2.108 1.612 3.644 1.612H11.348C13.46 1.612 15.512 2.38 17.504 3.916C18.488 4.66 19.292 5.668 19.916 6.94ZM11.348 14.356C12.068 14.356 12.776 14.092 13.472 13.564C14.168 13.036 14.516 12.244 14.516 11.188C14.516 10.132 14.168 9.34 13.472 8.812C12.776 8.26 12.056 7.984 11.312 7.984H6.812V14.356H11.348ZM35.4981 11.044C35.6421 9.7 36.5901 9.028 38.3421 9.028C39.2781 9.028 39.9741 9.1 40.4301 9.244C40.8861 9.388 41.1981 9.64 41.3661 10C41.5581 10.36 41.6661 10.684 41.6901 10.972C41.7381 11.236 41.7621 11.644 41.7621 12.196V24.796C41.7621 25.348 41.7381 25.768 41.6901 26.056C41.6661 26.32 41.5701 26.632 41.4021 26.992C41.0661 27.616 40.2381 27.928 38.9181 27.928C37.6221 27.928 36.7461 27.772 36.2901 27.46C35.8581 27.124 35.6061 26.644 35.5341 26.02C34.6461 27.292 33.1581 27.928 31.0701 27.928C29.0061 27.928 27.0861 26.98 25.3101 25.084C23.5341 23.188 22.6461 20.992 22.6461 18.496C22.6461 15.976 23.5341 13.78 25.3101 11.908C27.1101 10.012 29.0781 9.064 31.2141 9.064C32.0301 9.064 32.7741 9.208 33.4461 9.496C34.1181 9.784 34.5861 10.06 34.8501 10.324C35.1141 10.564 35.3301 10.804 35.4981 11.044ZM28.9461 18.532C28.9461 19.324 29.2581 20.044 29.8821 20.692C30.5061 21.316 31.2621 21.628 32.1501 21.628C33.0381 21.628 33.7701 21.304 34.3461 20.656C34.9461 20.008 35.2461 19.3 35.2461 18.532C35.2461 17.74 34.9581 17.008 34.3821 16.336C33.8301 15.664 33.0741 15.328 32.1141 15.328C31.1781 15.328 30.4101 15.664 29.8101 16.336C29.2341 17.008 28.9461 17.74 28.9461 18.532ZM44.6314 12.196C44.6314 11.644 44.6434 11.236 44.6674 10.972C44.7154 10.684 44.8234 10.36 44.9914 10C45.3274 9.376 46.2634 9.064 47.7994 9.064C48.9514 9.064 49.7674 9.268 50.2474 9.676C50.6554 10.012 50.8714 10.528 50.8954 11.224C50.9194 11.464 50.9314 11.812 50.9314 12.268V24.868C50.9314 25.42 50.9074 25.84 50.8594 26.128C50.8354 26.392 50.7274 26.704 50.5354 27.064C50.2234 27.688 49.2994 28 47.7634 28C46.2514 28 45.3274 27.676 44.9914 27.028C44.8234 26.668 44.7154 26.356 44.6674 26.092C44.6434 25.828 44.6314 25.408 44.6314 24.832V12.196ZM50.5354 5.536C50.3674 5.872 50.0554 6.112 49.5994 6.256C49.1434 6.4 48.5314 6.472 47.7634 6.472C47.0194 6.472 46.4194 6.4 45.9634 6.256C45.5074 6.112 45.1834 5.86 44.9914 5.5C44.8234 5.14 44.7154 4.828 44.6674 4.564C44.6434 4.276 44.6314 3.856 44.6314 3.304C44.6314 2.752 44.6434 2.344 44.6674 2.08C44.7154 1.792 44.8234 1.48 44.9914 1.144C45.3274 0.495998 46.2634 0.171998 47.7994 0.171998C49.3114 0.171998 50.2234 0.495998 50.5354 1.144C50.7274 1.504 50.8354 1.828 50.8594 2.116C50.9074 2.38 50.9314 2.788 50.9314 3.34C50.9314 3.892 50.9074 4.312 50.8594 4.6C50.8354 4.864 50.7274 5.176 50.5354 5.536ZM64.3552 9.028C66.7552 9.028 68.7472 9.952 70.3312 11.8C71.9392 13.624 72.7432 15.856 72.7432 18.496V24.832C72.7432 25.384 72.7192 25.804 72.6712 26.092C72.6472 26.356 72.5512 26.656 72.3832 26.992C72.0472 27.64 71.1112 27.964 69.5752 27.964C67.8712 27.964 66.8872 27.52 66.6232 26.632C66.4792 26.224 66.4072 25.612 66.4072 24.796V18.46C66.4072 17.476 66.1192 16.708 65.5432 16.156C64.9912 15.604 64.2352 15.328 63.2752 15.328C62.3392 15.328 61.5712 15.616 60.9712 16.192C60.3952 16.768 60.1072 17.524 60.1072 18.46V24.832C60.1072 25.384 60.0832 25.804 60.0352 26.092C60.0112 26.356 59.9032 26.656 59.7112 26.992C59.3992 27.64 58.4752 27.964 56.9392 27.964C55.4272 27.964 54.5032 27.64 54.1672 26.992C53.9992 26.632 53.8912 26.32 53.8432 26.056C53.8192 25.768 53.8072 25.348 53.8072 24.796V12.052C53.8072 11.524 53.8192 11.128 53.8432 10.864C53.8912 10.576 54.0112 10.264 54.2032 9.928C54.5392 9.328 55.4632 9.028 56.9752 9.028C58.4392 9.028 59.3392 9.304 59.6752 9.856C59.9152 10.264 60.0352 10.756 60.0352 11.332C60.1312 11.164 60.3472 10.924 60.6832 10.612C61.0192 10.3 61.3432 10.048 61.6552 9.856C62.4712 9.304 63.3712 9.028 64.3552 9.028ZM84.2047 18.532C84.2047 15.652 85.2127 13.276 87.2287 11.404C89.2447 9.532 91.5487 8.596 94.1407 8.596C96.7327 8.596 99.0247 9.532 101.017 11.404C103.009 13.252 104.005 15.616 104.005 18.496C104.005 20.488 103.489 22.264 102.457 23.824C101.425 25.36 100.165 26.5 98.6767 27.244C97.2127 27.964 95.6887 28.324 94.1047 28.324C92.5207 28.324 90.9847 27.94 89.4967 27.172C88.0087 26.38 86.7487 25.228 85.7167 23.716C84.7087 22.18 84.2047 20.452 84.2047 18.532ZM91.7287 21.124C92.4967 21.7 93.2767 21.988 94.0687 21.988C94.8607 21.988 95.6527 21.688 96.4447 21.088C97.2367 20.488 97.6327 19.6 97.6327 18.424C97.6327 17.248 97.2607 16.372 96.5167 15.796C95.7727 15.22 94.9687 14.932 94.1047 14.932C93.2407 14.932 92.4367 15.232 91.6927 15.832C90.9487 16.432 90.5767 17.32 90.5767 18.496C90.5767 19.648 90.9607 20.524 91.7287 21.124ZM114.755 27.928C112.331 27.928 110.315 27.016 108.707 25.192C107.123 23.344 106.331 21.1 106.331 18.46V12.16C106.331 11.584 106.343 11.164 106.367 10.9C106.415 10.636 106.523 10.324 106.691 9.964C107.027 9.316 107.963 8.992 109.499 8.992C111.179 8.992 112.163 9.448 112.451 10.36C112.595 10.744 112.667 11.356 112.667 12.196V18.496C112.667 19.48 112.943 20.248 113.495 20.8C114.071 21.352 114.827 21.628 115.763 21.628C116.723 21.628 117.491 21.34 118.067 20.764C118.667 20.188 118.967 19.432 118.967 18.496V12.124C118.967 11.572 118.979 11.164 119.003 10.9C119.051 10.612 119.171 10.288 119.363 9.928C119.675 9.304 120.599 8.992 122.135 8.992C123.647 8.992 124.571 9.316 124.907 9.964C125.075 10.324 125.171 10.648 125.195 10.936C125.243 11.2 125.267 11.608 125.267 12.16V24.904C125.267 25.432 125.243 25.84 125.195 26.128C125.171 26.392 125.063 26.692 124.871 27.028C124.511 27.652 123.587 27.964 122.099 27.964C120.635 27.964 119.735 27.676 119.399 27.1C119.159 26.692 119.039 26.2 119.039 25.624C118.943 25.792 118.727 26.032 118.391 26.344C118.055 26.656 117.731 26.92 117.419 27.136C116.603 27.664 115.715 27.928 114.755 27.928ZM149.292 25.624C148.38 26.824 146.928 27.424 144.936 27.424C142.944 27.424 141.072 26.512 139.32 24.688C137.592 22.84 136.728 20.692 136.728 18.244C136.728 15.796 137.604 13.648 139.356 11.8C141.108 9.952 143.028 9.028 145.116 9.028C145.932 9.028 146.676 9.184 147.348 9.496C148.02 9.784 148.476 10.06 148.716 10.324C148.98 10.564 149.184 10.792 149.328 11.008C149.4 10.336 149.64 9.832 150.048 9.496C150.48 9.136 151.164 8.956 152.1 8.956C153.036 8.956 153.72 9.028 154.152 9.172C154.584 9.316 154.884 9.568 155.052 9.928C155.244 10.264 155.352 10.564 155.376 10.828C155.424 11.092 155.448 11.5 155.448 12.052V26.956C155.448 29.716 154.488 31.936 152.568 33.616C150.648 35.32 148.488 36.172 146.088 36.172C144.264 36.172 142.524 35.728 140.868 34.84C139.212 33.952 138.384 33.148 138.384 32.428C138.384 31.492 138.744 30.664 139.464 29.944C139.92 29.44 140.268 29.092 140.508 28.9C140.772 28.708 141.072 28.612 141.408 28.612C141.744 28.612 142.092 28.756 142.452 29.044C143.604 29.932 144.852 30.376 146.196 30.376C147.108 30.376 147.852 30.016 148.428 29.296C149.004 28.576 149.292 27.712 149.292 26.704V25.624ZM142.884 18.28C142.884 19.048 143.184 19.744 143.784 20.368C144.408 20.992 145.152 21.304 146.016 21.304C146.904 21.304 147.636 20.992 148.212 20.368C148.788 19.72 149.076 19.024 149.076 18.28C149.076 17.512 148.8 16.804 148.248 16.156C147.696 15.484 146.952 15.148 146.016 15.148C145.08 15.148 144.324 15.472 143.748 16.12C143.172 16.768 142.884 17.488 142.884 18.28ZM170.639 11.044C170.783 9.7 171.731 9.028 173.483 9.028C174.419 9.028 175.115 9.1 175.571 9.244C176.027 9.388 176.339 9.64 176.507 10C176.699 10.36 176.807 10.684 176.831 10.972C176.879 11.236 176.903 11.644 176.903 12.196V24.796C176.903 25.348 176.879 25.768 176.831 26.056C176.807 26.32 176.711 26.632 176.543 26.992C176.207 27.616 175.379 27.928 174.059 27.928C172.763 27.928 171.887 27.772 171.431 27.46C170.999 27.124 170.747 26.644 170.675 26.02C169.787 27.292 168.299 27.928 166.211 27.928C164.147 27.928 162.227 26.98 160.451 25.084C158.675 23.188 157.787 20.992 157.787 18.496C157.787 15.976 158.675 13.78 160.451 11.908C162.251 10.012 164.219 9.064 166.355 9.064C167.171 9.064 167.915 9.208 168.587 9.496C169.259 9.784 169.727 10.06 169.991 10.324C170.255 10.564 170.471 10.804 170.639 11.044ZM164.087 18.532C164.087 19.324 164.399 20.044 165.023 20.692C165.647 21.316 166.403 21.628 167.291 21.628C168.179 21.628 168.911 21.304 169.487 20.656C170.087 20.008 170.387 19.3 170.387 18.532C170.387 17.74 170.099 17.008 169.523 16.336C168.971 15.664 168.215 15.328 167.255 15.328C166.319 15.328 165.551 15.664 164.951 16.336C164.375 17.008 164.087 17.74 164.087 18.532ZM179.772 3.268C179.772 2.716 179.784 2.308 179.808 2.044C179.856 1.756 179.964 1.432 180.132 1.072C180.468 0.423999 181.404 0.0999987 182.94 0.0999987C184.404 0.0999987 185.316 0.423999 185.676 1.072C185.868 1.432 185.976 1.756 186 2.044C186.048 2.332 186.072 2.752 186.072 3.304V19.972C186.072 20.836 186.144 21.388 186.288 21.628C186.432 21.844 186.744 21.952 187.224 21.952C187.728 21.952 188.064 21.976 188.232 22.024C188.4 22.048 188.604 22.144 188.844 22.312C189.324 22.624 189.564 23.476 189.564 24.868C189.564 26.38 189.324 27.304 188.844 27.64C188.22 28.072 186.732 28.144 184.38 27.856C182.532 27.616 181.332 27.004 180.78 26.02C180.108 24.844 179.772 22.972 179.772 20.404V3.268ZM209.486 16.264C209.486 17.728 209.114 18.82 208.37 19.54C207.65 20.236 206.846 20.584 205.958 20.584H197.426C197.426 21.256 197.822 21.82 198.614 22.276C199.406 22.732 200.198 22.96 200.99 22.96C202.382 22.96 203.474 22.816 204.266 22.528L204.662 22.384C205.238 22.12 205.718 21.988 206.102 21.988C206.87 21.988 207.53 22.528 208.082 23.608C208.394 24.256 208.55 24.808 208.55 25.264C208.55 27.4 205.994 28.468 200.882 28.468C199.106 28.468 197.522 28.168 196.13 27.568C194.762 26.944 193.694 26.128 192.926 25.12C191.414 23.176 190.658 21.004 190.658 18.604C190.658 15.58 191.63 13.168 193.574 11.368C195.542 9.544 197.99 8.632 200.918 8.632C204.254 8.632 206.702 9.808 208.262 12.16C209.078 13.408 209.486 14.776 209.486 16.264ZM201.89 17.308C202.802 17.308 203.258 16.924 203.258 16.156C203.258 15.604 203.042 15.16 202.61 14.824C202.202 14.488 201.602 14.32 200.81 14.32C200.042 14.32 199.274 14.644 198.506 15.292C197.738 15.916 197.354 16.588 197.354 17.308H201.89ZM235.271 15.4L232.931 15.256V20.224C232.931 20.872 233.027 21.34 233.219 21.628C233.435 21.916 233.819 22.06 234.371 22.06C234.947 22.06 235.379 22.084 235.667 22.132C235.979 22.156 236.291 22.264 236.603 22.456C237.179 22.768 237.467 23.572 237.467 24.868C237.467 26.38 237.131 27.304 236.459 27.64C236.099 27.808 235.775 27.916 235.487 27.964C235.223 27.988 234.827 28 234.299 28C231.899 28 230.027 27.376 228.683 26.128C227.339 24.88 226.667 23.032 226.667 20.584V15.256C225.515 15.352 224.555 15.4 223.787 15.4L220.511 15.256V20.224C220.511 20.872 220.607 21.34 220.799 21.628C221.015 21.916 221.399 22.06 221.951 22.06C222.527 22.06 222.959 22.084 223.247 22.132C223.559 22.156 223.883 22.264 224.219 22.456C224.771 22.768 225.047 23.572 225.047 24.868C225.047 26.38 224.711 27.304 224.039 27.64C223.679 27.808 223.355 27.916 223.067 27.964C222.803 27.988 222.407 28 221.879 28C219.479 28 217.607 27.376 216.263 26.128C214.919 24.88 214.247 23.032 214.247 20.584V15.256C213.767 15.328 213.263 15.364 212.735 15.364C212.231 15.364 211.799 15.16 211.439 14.752C211.103 14.344 210.935 13.648 210.935 12.664C210.935 11.68 210.995 10.972 211.115 10.54C211.235 10.084 211.403 9.76 211.619 9.568C212.003 9.256 212.483 9.1 213.059 9.1L214.247 9.244V5.536C214.247 4.984 214.259 4.576 214.283 4.312C214.331 4.048 214.451 3.76 214.643 3.448C214.955 2.848 215.879 2.548 217.415 2.548C219.047 2.548 220.019 2.992 220.331 3.88C220.451 4.264 220.511 4.876 220.511 5.716V9.136C221.639 9.112 222.707 9.1 223.715 9.1L226.667 9.136V5.536C226.667 4.984 226.679 4.576 226.703 4.312C226.751 4.048 226.859 3.76 227.027 3.448C227.363 2.848 228.299 2.548 229.835 2.548C231.467 2.548 232.427 2.992 232.715 3.88C232.859 4.264 232.931 4.876 232.931 5.716V9.244C233.987 9.148 234.779 9.1 235.307 9.1C235.859 9.1 236.267 9.124 236.531 9.172C236.819 9.196 237.131 9.304 237.467 9.496C238.115 9.808 238.439 10.732 238.439 12.268C238.439 13.78 238.115 14.704 237.467 15.04C237.107 15.208 236.783 15.316 236.495 15.364C236.231 15.388 235.823 15.4 235.271 15.4ZM258.705 16.264C258.705 17.728 258.333 18.82 257.589 19.54C256.869 20.236 256.065 20.584 255.177 20.584H246.645C246.645 21.256 247.041 21.82 247.833 22.276C248.625 22.732 249.417 22.96 250.209 22.96C251.601 22.96 252.693 22.816 253.485 22.528L253.881 22.384C254.457 22.12 254.937 21.988 255.321 21.988C256.089 21.988 256.749 22.528 257.301 23.608C257.613 24.256 257.769 24.808 257.769 25.264C257.769 27.4 255.213 28.468 250.101 28.468C248.325 28.468 246.741 28.168 245.349 27.568C243.981 26.944 242.913 26.128 242.145 25.12C240.633 23.176 239.877 21.004 239.877 18.604C239.877 15.58 240.849 13.168 242.793 11.368C244.761 9.544 247.209 8.632 250.137 8.632C253.473 8.632 255.921 9.808 257.481 12.16C258.297 13.408 258.705 14.776 258.705 16.264ZM251.109 17.308C252.021 17.308 252.477 16.924 252.477 16.156C252.477 15.604 252.261 15.16 251.829 14.824C251.421 14.488 250.821 14.32 250.029 14.32C249.261 14.32 248.493 14.644 247.725 15.292C246.957 15.916 246.573 16.588 246.573 17.308H251.109ZM274.947 15.94L274.983 15.652C274.983 14.62 275.271 13.804 275.847 13.204C276.447 12.604 277.095 12.208 277.791 12.016C278.487 11.824 279.123 11.5 279.699 11.044C280.299 10.588 280.599 9.976 280.599 9.208C280.599 8.416 280.371 7.804 279.915 7.372C279.483 6.94 278.823 6.724 277.935 6.724C277.047 6.724 276.387 6.868 275.955 7.156C275.547 7.42 275.295 7.696 275.199 7.984L275.091 8.416C274.875 9.04 274.623 9.52 274.335 9.856C274.047 10.168 273.675 10.324 273.219 10.324C272.763 10.324 272.163 10.18 271.419 9.892C269.979 9.34 269.259 8.656 269.259 7.84C269.259 7.48 269.331 7.12 269.475 6.76C269.619 6.376 269.739 6.064 269.835 5.824C269.931 5.56 270.183 5.116 270.591 4.492C271.023 3.868 271.503 3.328 272.031 2.872C272.583 2.392 273.351 1.96 274.335 1.576C275.319 1.168 276.411 0.963998 277.611 0.963998C280.155 0.963998 282.231 1.78 283.839 3.412C285.447 5.044 286.251 6.94 286.251 9.1C286.251 10.132 286.059 11.092 285.675 11.98C285.315 12.844 284.871 13.528 284.343 14.032C283.287 15.04 282.303 15.712 281.391 16.048L280.815 16.228C280.815 16.636 280.791 16.948 280.743 17.164C280.719 17.38 280.611 17.62 280.419 17.884C280.251 18.124 279.951 18.304 279.519 18.424C279.111 18.52 278.559 18.568 277.863 18.568C277.167 18.568 276.603 18.508 276.171 18.388C275.763 18.268 275.475 18.064 275.307 17.776C275.139 17.488 275.031 17.236 274.983 17.02C274.959 16.78 274.947 16.42 274.947 15.94ZM274.803 22.384C274.995 22 275.331 21.724 275.811 21.556C276.315 21.388 277.095 21.304 278.151 21.304C279.207 21.304 279.963 21.544 280.419 22.024C280.899 22.48 281.139 23.38 281.139 24.724C281.139 25.684 281.019 26.404 280.779 26.884C280.539 27.34 280.167 27.652 279.663 27.82C279.183 27.964 278.427 28.036 277.395 28.036C276.363 28.036 275.571 27.784 275.019 27.28C274.611 26.872 274.407 26.176 274.407 25.192V24.616C274.407 24.064 274.419 23.644 274.443 23.356C274.491 23.068 274.611 22.744 274.803 22.384Z" fill="#4D0302"/>
</svg>
